HIERARCHY
ROOT Hips
{
	OFFSET 0.00000 0.00000 0.00000
	CHANNELS 6 Xposition Yposition Zposition Zrotation Yrotation Xrotation 
	JOINT LHipJoint
	{
		OFFSET 0 0 0
		CHANNELS 3 Zrotation Yrotation Xrotation
		JOINT LeftUpLeg
		{
			OFFSET 1.48831 -1.59570 0.95625
			CHANNELS 3 Zrotation Yrotation Xrotation
			JOINT LeftLeg
			{
				OFFSET 2.20856 -6.06797 0.00000
				CHANNELS 3 Zrotation Yrotation Xrotation
				JOINT LeftFoot
				{
					OFFSET 2.62924 -7.22379 0.00000
					CHANNELS 3 Zrotation Yrotation Xrotation
					JOINT LeftToeBase
					{
						OFFSET 0.16802 -0.46163 2.41673
						CHANNELS 3 Zrotation Yrotation Xrotation
						End Site
						{
							OFFSET 0.00000 -0.00000 1.23760
						}
					}
				}
			}
		}
	}
	JOINT RHipJoint
	{
		OFFSET 0 0 0
		CHANNELS 3 Zrotation Yrotation Xrotation
		JOINT RightUpLeg
		{
			OFFSET -1.56796 -1.59570 0.95625
			CHANNELS 3 Zrotation Yrotation Xrotation
			JOINT RightLeg
			{
				OFFSET -2.29239 -6.29829 0.00000
				CHANNELS 3 Zrotation Yrotation Xrotation
				JOINT RightFoot
				{
					OFFSET -2.66963 -7.33475 0.00000
					CHANNELS 3 Zrotation Yrotation Xrotation
					JOINT RightToeBase
					{
						OFFSET -0.18185 -0.49964 2.34359
						CHANNELS 3 Zrotation Yrotation Xrotation
						End Site
						{
							OFFSET -0.00000 -0.00000 1.20477
						}
					}
				}
			}
		}
	}
	JOINT LowerBack
	{
		OFFSET 0 0 0
		CHANNELS 3 Zrotation Yrotation Xrotation
		JOINT Spine
		{
			OFFSET 0.03505 2.15832 -0.34324
			CHANNELS 3 Zrotation Yrotation Xrotation
			JOINT Spine1
			{
				OFFSET -0.01089 2.17963 0.04689
				CHANNELS 3 Zrotation Yrotation Xrotation
				JOINT Neck
				{
					OFFSET 0 0 0
					CHANNELS 3 Zrotation Yrotation Xrotation
					JOINT Neck1
					{
						OFFSET 0.04686 1.69404 0.22159
						CHANNELS 3 Zrotation Yrotation Xrotation
						JOINT Head
						{
							OFFSET 0.00265 1.69305 -0.01513
							CHANNELS 3 Zrotation Yrotation Xrotation
							End Site
							{
								OFFSET -0.00415 1.80215 -0.03034
							}
						}
					}
				}
				JOINT LeftShoulder
				{
					OFFSET 0 0 0
					CHANNELS 3 Zrotation Yrotation Xrotation
					JOINT LeftArm
					{
						OFFSET 3.67184 1.11724 -0.19002
						CHANNELS 3 Zrotation Yrotation Xrotation
						JOINT LeftForeArm
						{
							OFFSET 5.17714 -0.00000 -0.00000
							CHANNELS 3 Zrotation Yrotation Xrotation
							JOINT LeftHand
							{
								OFFSET 3.43679 -0.00000 -0.00000
								CHANNELS 3 Zrotation Yrotation Xrotation
								JOINT LeftFingerBase
								{
									OFFSET 0 0 0
									CHANNELS 3 Zrotation Yrotation Xrotation
									JOINT LeftHandIndex1
									{
										OFFSET 0.57312 -0.00000 -0.00000
										CHANNELS 3 Zrotation Yrotation Xrotation
										End Site
										{
											OFFSET 0.46206 -0.00000 -0.00000
										}
									}
								}
								JOINT LThumb
								{
									OFFSET 0 0 0
									CHANNELS 3 Zrotation Yrotation Xrotation
									End Site
									{
										OFFSET 0.46912 -0.00000 0.46912
									}
								}
							}
						}
					}
				}
				JOINT RightShoulder
				{
					OFFSET 0 0 0
					CHANNELS 3 Zrotation Yrotation Xrotation
					JOINT RightArm
					{
						OFFSET -3.59596 0.95831 -0.26050
						CHANNELS 3 Zrotation Yrotation Xrotation
						JOINT RightForeArm
						{
							OFFSET -5.23908 -0.00000 -0.00000
							CHANNELS 3 Zrotation Yrotation Xrotation
							JOINT RightHand
							{
								OFFSET -3.46485 -0.00000 -0.00000
								CHANNELS 3 Zrotation Yrotation Xrotation
								JOINT RightFingerBase
								{
									OFFSET 0 0 0
									CHANNELS 3 Zrotation Yrotation Xrotation
									JOINT RightHandIndex1
									{
										OFFSET -0.60875 -0.00000 -0.00000
										CHANNELS 3 Zrotation Yrotation Xrotation
										End Site
										{
											OFFSET -0.49079 -0.00000 -0.00000
										}
									}
								}
								JOINT RThumb
								{
									OFFSET 0 0 0
									CHANNELS 3 Zrotation Yrotation Xrotation
									End Site
									{
										OFFSET -0.49829 -0.00000 0.49829
									}
								}
							}
						}
					}
				}
			}
		}
	}
}
MOTION
Frames: 7
Frame Time: .0083333
44.3469 15.9076 -17.6682 0 0 0 0 0 0 -21 0 0 0 0 0 0 0 0 0 0 0 0 0 0 21 0 0 0 0 0 0 0 0 0 0 0 0 0 0 0 0 0 0 0 0 0 0 -16 0 0 21 0 0 11 0 0 0 -8 0 0 0 0 0 0 0 0 0 0 0 0 0 0 0 0 0 0 0 0 8 0 0 0 0 0 0 0 0 0 0 0 0 0 0 0 0 0
44.3469 15.9076 -17.6682 -85.2925 -85.9275 83.5172 0.0000 0.0000 0.0000 -14.3632 1.5394 0.0479 1.2020 6.9558 19.5846 1.4396 10.1354 -28.3501 0.0134 0.7481 2.0561 0.0000 0.0000 0.0000 20.8271 3.7350 -6.9226 -2.8434 -10.4371 30.4041 -1.5333 -7.0375 -26.8591 -0.0289 1.0976 -3.0173 1.2655 -1.0912 -0.6778 0.8785 -1.5488 2.9745 0.1372 -0.7649 3.4272 -3.0994 -5.1783 -0.8982 11.6731 -6.8530 -3.3226 4.3472 -3.5583 -0.3393 0.0000 -0.0000 0.0000 -91.0065 -4.2740 8.0951 11.2870 -18.7268 -1.8670 -0.0000 0.0000 -21.9896 16.5389 5.9008 1.7486 -7.1250 0.0000 -0.0000 -8.5293 36.0218 1.8996 0.0000 -0.0000 0.0000 89.5830 2.9274 11.9725 -12.8614 21.0838 -2.4032 0.0000 0.0000 6.6895 -17.2821 -4.3063 1.3383 7.1250 -0.0000 -0.0000 7.7151 -34.4091 2.0207
44.3457 15.9076 -17.6680 -85.1522 -85.9381 83.3768 0.0000 0.0000 0.0000 -14.3770 1.5286 0.0691 1.1988 6.9471 19.5589 1.4431 10.1222 -28.3642 0.0148 0.7853 2.1582 0.0000 0.0000 0.0000 20.8129 3.7289 -6.9241 -2.8469 -10.4429 30.4233 -1.5484 -6.9494 -26.9119 -0.0241 1.0023 -2.7552 1.2435 -1.0924 -0.6851 0.8773 -1.5501 2.9800 0.1480 -0.7661 3.4375 -3.1233 -5.1773 -0.9389 11.6902 -6.8564 -3.2658 4.3550 -3.5570 -0.3119 0.0000 -0.0000 0.0000 -91.0020 -4.2617 8.2111 11.3098 -18.7615 -1.8743 -0.0000 0.0000 -22.0775 16.5538 5.8992 1.7498 -7.1250 0.0000 -0.0000 -8.5168 36.0208 1.8970 0.0000 -0.0000 0.0000 89.5674 2.9807 11.8359 -12.7443 20.9114 -2.3612 0.0000 0.0000 7.0604 -17.6425 -3.5525 1.1289 7.1250 -0.0000 -0.0000 7.3382 -33.6402 2.0584
44.3453 15.9084 -17.6676 -85.0179 -85.9655 83.2364 0.0000 0.0000 0.0000 -14.4140 1.5003 0.1095 1.1967 6.9412 19.5413 1.4543 10.0737 -28.4049 0.0169 0.8396 2.3074 0.0000 0.0000 0.0000 20.7721 3.7530 -6.8639 -2.8501 -10.4484 30.4412 -1.6057 -6.5510 -27.0732 -0.0095 0.6295 -1.7298 1.2198 -1.0955 -0.6619 0.8623 -1.5517 2.9541 0.1466 -0.7674 3.3978 -3.1071 -5.1808 -0.8971 11.6786 -6.8623 -3.2482 4.3488 -3.5606 -0.3142 -0.0000 -0.0000 0.0000 -90.9997 -4.2330 8.1737 11.3005 -18.7474 -1.8714 -0.0000 0.0000 -22.0182 16.5820 5.9272 1.7612 -7.1250 0.0000 -0.0000 -8.4972 36.0512 1.8862 -0.0000 -0.0000 0.0000 89.5674 2.9304 11.9910 -12.8691 21.0951 -2.4060 0.0000 0.0000 6.5878 -17.2822 -4.4511 1.3832 7.1250 -0.0000 -0.0000 7.7320 -34.5592 1.9968
44.3441 15.9074 -17.6680 -84.9393 -85.9614 83.1724 0.0000 0.0000 0.0000 -14.4092 1.5266 0.0761 1.1950 6.9363 19.5269 1.4232 10.2305 -28.3089 0.0111 0.6813 1.8722 0.0000 0.0000 0.0000 20.7832 3.7355 -6.9301 -2.8530 -10.4532 30.4573 -1.5654 -6.8510 -26.9715 -0.0203 0.9205 -2.5301 1.2158 -1.0941 -0.6959 0.8595 -1.5503 2.9603 0.1452 -0.7666 3.4234 -3.1016 -5.1792 -0.9274 11.6816 -6.8622 -3.2273 4.3472 -3.5592 -0.3022 0.0000 -0.0000 0.0000 -90.9894 -4.2574 8.2162 11.3057 -18.7553 -1.8730 -0.0000 0.0000 -22.0520 16.5786 5.9248 1.7601 -7.1250 0.0000 -0.0000 -8.4997 36.0485 1.8873 0.0000 -0.0000 0.0000 89.5699 2.9796 11.8920 -12.8032 20.9982 -2.3823 0.0000 0.0000 6.8041 -17.4176 -4.0909 1.2821 7.1250 -0.0000 -0.0000 7.5799 -34.1911 2.0252
44.3433 15.9069 -17.6681 -84.9642 -85.9657 83.2053 0.0000 0.0000 0.0000 -14.4152 1.5462 0.0606 1.1932 6.9312 19.5119 1.4018 10.3419 -28.2464 0.0078 0.5687 1.5627 0.0000 0.0000 0.0000 20.7791 3.7432 -6.9465 -2.8566 -10.4592 30.4769 -1.5668 -6.8513 -26.9812 -0.0205 0.9248 -2.5419 1.2069 -1.0928 -0.7064 0.8553 -1.5481 2.9530 0.1458 -0.7656 3.4219 -3.0969 -5.1787 -0.9395 11.6796 -6.8643 -3.1941 4.3444 -3.5589 -0.2894 0.0000 -0.0000 0.0000 -90.9831 -4.2488 8.2547 11.3119 -18.7648 -1.8750 -0.0000 0.0000 -22.0776 16.5827 5.9041 1.7545 -7.1250 0.0000 -0.0000 -8.4935 36.0274 1.8903 0.0000 -0.0000 0.0000 89.5673 2.9928 11.8802 -12.7960 20.9876 -2.3797 0.0000 0.0000 6.8108 -17.4117 -4.1100 1.2876 7.1250 -0.0000 -0.0000 7.5869 -34.2107 2.0235
44.3424 15.9064 -17.6682 -85.0922 -85.9675 83.3433 0.0000 0.0000 0.0000 -14.4187 1.5664 0.0323 1.1932 6.9315 19.5126 1.3786 10.4701 -28.1836 0.0046 0.4373 1.2017 0.0000 0.0000 0.0000 20.7786 3.7575 -6.9601 -2.8591 -10.4633 30.4906 -1.5680 -6.8480 -26.9881 -0.0205 0.9254 -2.5435 1.2016 -1.0902 -0.7169 0.8522 -1.5443 2.9434 0.1456 -0.7637 3.4180 -3.0937 -5.1777 -0.9528 11.6772 -6.8664 -3.1537 4.3415 -3.5583 -0.2740 -0.0000 0.0000 0.0000 -90.9770 -4.2335 8.2935 11.3195 -18.7763 -1.8775 -0.0000 0.0000 -22.1064 16.5803 5.8688 1.7438 -7.1250 0.0000 -0.0000 -8.4906 35.9909 1.8973 -0.0000 0.0000 0.0000 89.5646 2.9999 11.8897 -12.8060 21.0023 -2.3833 0.0000 0.0000 6.7657 -17.3543 -4.2407 1.3238 7.1250 -0.0000 -0.0000 7.6486 -34.3441 2.0152
